<?xml version="1.0" encoding="UTF-8"?>
<svg width="1600" height="900" viewBox="0 0 1600 900" fill="none" xmlns="http://www.w3.org/2000/svg">
  <defs>
    <linearGradient id="bg-about" x1="0" y1="0" x2="1600" y2="900" gradientUnits="userSpaceOnUse">
      <stop stop-color="#001E4D"/>
      <stop offset="1" stop-color="#3D4DFF"/>
    </linearGradient>
  </defs>
  <rect width="1600" height="900" rx="48" fill="url(#bg-about)"/>
  <rect x="200" y="180" width="1200" height="540" rx="40" fill="#020617" opacity="0.45"/>
  <rect x="260" y="230" width="510" height="330" rx="28" fill="#0A0F1F" opacity="0.65" stroke="#0EA5E9" stroke-width="5"/>
  <rect x="820" y="230" width="520" height="330" rx="28" fill="#0A0F1F" opacity="0.65" stroke="#6B21A8" stroke-width="5"/>
  <rect x="300" y="280" width="430" height="70" rx="20" fill="#3D4DFF" opacity="0.9"/>
  <rect x="300" y="370" width="430" height="50" rx="16" fill="#0EA5E9" opacity="0.5"/>
  <rect x="900" y="280" width="360" height="70" rx="20" fill="#6B21A8" opacity="0.9"/>
  <rect x="900" y="370" width="360" height="50" rx="16" fill="#0EA5E9" opacity="0.5"/>
  <circle cx="400" cy="640" r="100" fill="#0EA5E9" opacity="0.35"/>
  <circle cx="1200" cy="640" r="120" fill="#6B21A8" opacity="0.3"/>
  <path d="M420 640 C520 570 680 570 780 640" stroke="#E2E8F0" stroke-width="20" stroke-linecap="round" opacity="0.55"/>
  <path d="M860 640 C960 570 1120 570 1220 640" stroke="#E2E8F0" stroke-width="20" stroke-linecap="round" opacity="0.55"/>
  <circle cx="520" cy="220" r="36" fill="#E2E8F0" opacity="0.35"/>
  <circle cx="1080" cy="190" r="52" fill="#0EA5E9" opacity="0.35"/>
</svg>
