<?xml version="1.0" encoding="UTF-8"?>
<svg width="800" height="800" viewBox="0 0 800 800" fill="none" xmlns="http://www.w3.org/2000/svg">
  <defs>
    <linearGradient id="profile-bg" x1="0" y1="0" x2="800" y2="800" gradientUnits="userSpaceOnUse">
      <stop stop-color="#001E4D"/>
      <stop offset="1" stop-color="#3D4DFF"/>
    </linearGradient>
    <linearGradient id="profile-accent" x1="0" y1="0" x2="1" y2="1">
      <stop stop-color="#6B21A8"/>
      <stop offset="1" stop-color="#0EA5E9"/>
    </linearGradient>
  </defs>
  <rect width="800" height="800" rx="60" fill="url(#profile-bg)"/>
  <circle cx="620" cy="200" r="80" fill="#0EA5E9" opacity="0.4"/>
  <circle cx="160" cy="640" r="110" fill="#6B21A8" opacity="0.35"/>
  <rect x="220" y="300" width="360" height="360" rx="180" fill="#0A0F1F" opacity="0.45"/>
  <circle cx="400" cy="285" r="110" fill="#E2E8F0"/>
  <rect x="280" y="380" width="240" height="260" rx="120" fill="#3D4DFF"/>
  <rect x="250" y="520" width="300" height="180" rx="90" fill="#0EA5E9" opacity="0.65"/>
  <path d="M315 430 C360 380 440 380 485 430" stroke="#E2E8F0" stroke-width="16" stroke-linecap="round" opacity="0.7"/>
  <circle cx="400" cy="295" r="65" fill="#E2E8F0"/>
  <circle cx="375" cy="285" r="10" fill="#0A0F1F"/>
  <circle cx="425" cy="285" r="10" fill="#0A0F1F"/>
  <path d="M365 330 C380 350 420 350 435 330" stroke="#0A0F1F" stroke-width="8" stroke-linecap="round"/>
  <path d="M300 590 C320 560 360 540 400 540 C440 540 480 560 500 590" stroke="#E2E8F0" stroke-width="18" stroke-linecap="round" opacity="0.6"/>
  <circle cx="520" cy="170" r="30" fill="#E2E8F0" opacity="0.4"/>
  <circle cx="260" cy="200" r="24" fill="#E2E8F0" opacity="0.35"/>
</svg>
