<?xml version="1.0" encoding="UTF-8"?>
<svg width="1920" height="1080" viewBox="0 0 1920 1080" fill="none" xmlns="http://www.w3.org/2000/svg">
  <defs>
    <linearGradient id="bg-ai-suite" x1="0" y1="0" x2="1920" y2="1080" gradientUnits="userSpaceOnUse">
      <stop stop-color="#001E4D"/>
      <stop offset="1" stop-color="#3D4DFF"/>
    </linearGradient>
    <linearGradient id="panel-ai-suite" x1="0" y1="0" x2="1" y2="1">
      <stop stop-color="#38BDF8" stop-opacity="0.95"/>
      <stop offset="1" stop-color="#3D4DFF" stop-opacity="0.85"/>
    </linearGradient>
  </defs>
  <rect width="1920" height="1080" rx="60" fill="url(#bg-ai-suite)"/>
  <rect x="180" y="160" width="1560" height="760" rx="40" fill="#020617" opacity="0.45"/>
  <rect x="260" y="260" width="600" height="480" rx="32" fill="#020617" opacity="0.82" stroke="#38BDF8" stroke-width="6" stroke-opacity="0.65"/>
  <rect x="920" y="260" width="640" height="480" rx="32" fill="#020617" opacity="0.75"/>
  <rect x="300" y="310" width="520" height="120" rx="24" fill="url(#panel-ai-suite)"/>
  <rect x="300" y="460" width="520" height="60" rx="18" fill="#38BDF8" opacity="0.45"/>
  <rect x="300" y="540" width="520" height="60" rx="18" fill="#38BDF8" opacity="0.3"/>
  <rect x="300" y="620" width="520" height="60" rx="18" fill="#38BDF8" opacity="0.25"/>
  <rect x="960" y="310" width="560" height="220" rx="26" fill="url(#panel-ai-suite)" opacity="0.9"/>
  <rect x="960" y="560" width="260" height="140" rx="26" fill="#6B21A8" opacity="0.6"/>
  <rect x="1240" y="560" width="280" height="140" rx="26" fill="#0EA5E9" opacity="0.6"/>
  <circle cx="400" cy="220" r="50" fill="#38BDF8" opacity="0.45"/>
  <circle cx="1520" cy="900" r="80" fill="#38BDF8" opacity="0.35"/>
  <circle cx="520" cy="900" r="40" fill="#E2E8F0" opacity="0.25"/>
  <rect x="1180" y="740" width="340" height="140" rx="30" fill="#0A0F1F" opacity="0.55"/>
  <path d="M980 660 C1060 620 1120 620 1200 660" stroke="#E2E8F0" stroke-width="16" stroke-linecap="round" opacity="0.5"/>
</svg>
