<svg width="128" height="128" viewBox="0 0 128 128" fill="none" xmlns="http://www.w3.org/2000/svg">
  <rect width="128" height="128" rx="26" fill="#040404"/>
  <path fill-rule="evenodd" clip-rule="evenodd" d="M32 28C32 26.8954 32.8954 26 34 26H62C84 26 98 37.5 98 54.5C98 68.5 89.5 78.5 74.5 81.5L96 102C96.7804 102.78 96.7804 104.047 96 104.828L80.8284 120C80.0474 120.781 78.781 120.781 78 120L48 90.5V120C48 121.105 47.1046 122 46 122H34C32.8954 122 32 121.105 32 120V28ZM48 42V65H61.5C70.5 65 76 60.5 76 53.5C76 46.5 70.5 42 61.5 42H48Z" fill="#081650"/>
  <path d="M86 25C102 34 110 46.5 110 62C110 77.5 102 90 86 99" stroke="#F3121C" stroke-width="11" stroke-linecap="round"/>
</svg>
